HIERARCHY
ROOT Hips
{
    OFFSET 0.000000 0.000000 0.000000
    CHANNELS 6 Xposition Yposition Zposition Zrotation Xrotation Yrotation
    JOINT Spine
    {
        OFFSET -0.000000 7.856138 0.000000
        CHANNELS 3 Zrotation Xrotation Yrotation
        JOINT Spine1
        {
            OFFSET -0.000000 20.830866 0.000000
            CHANNELS 3 Zrotation Xrotation Yrotation
            JOINT Neck
            {
                OFFSET -0.000000 20.745317 1.885938
                CHANNELS 3 Zrotation Xrotation Yrotation
                JOINT Head
                {
                    OFFSET -0.000000 13.412918 -1.916131
                    CHANNELS 3 Zrotation Xrotation Yrotation
                    End Site
                    {
                        OFFSET -0.000000 23.951641 0.000000
                    }
                }
            }
            JOINT LeftShoulder
            {
                OFFSET 3.826675 19.078362 -0.073511
                CHANNELS 3 Zrotation Xrotation Yrotation
                JOINT LeftArm
                {
                    OFFSET 10.442133 0.000000 0.000000
                    CHANNELS 3 Zrotation Xrotation Yrotation
                    JOINT LeftForeArm
                    {
                        OFFSET 37.051945 0.000000 0.000000
                        CHANNELS 3 Zrotation Xrotation Yrotation
                        JOINT LeftHand
                        {
                            OFFSET 24.394852 0.000000 0.000000
                            CHANNELS 3 Zrotation Xrotation Yrotation
                            End Site
                            {
                                OFFSET 14.370985 0.000000 0.000000
                            }
                        }
                    }
                }
            }
            JOINT RightShoulder
            {
                OFFSET -3.827599 19.078362 -0.073511
                CHANNELS 3 Zrotation Xrotation Yrotation
                JOINT RightArm
                {
                    OFFSET -10.442133 0.000000 0.000000
                    CHANNELS 3 Zrotation Xrotation Yrotation
                    JOINT RightForeArm
                    {
                        OFFSET -37.051945 0.000000 0.000000
                        CHANNELS 3 Zrotation Xrotation Yrotation
                        JOINT RightHand
                        {
                            OFFSET -24.394852 0.000000 0.000000
                            CHANNELS 3 Zrotation Xrotation Yrotation
                            End Site
                            {
                                OFFSET -14.370985 0.000000 0.000000
                            }
                        }
                    }
                }
            }
        }
    }
    JOINT LeftUpLeg
    {
        OFFSET 9.580656 0.000000 0.000000
        CHANNELS 3 Zrotation Xrotation Yrotation
        JOINT LeftLeg
        {
            OFFSET -0.000000 -43.769192 0.000000
            CHANNELS 3 Zrotation Xrotation Yrotation
            JOINT LeftFoot
            {
                OFFSET -0.000000 -42.531967 0.000000
                CHANNELS 3 Zrotation Xrotation Yrotation
                JOINT LeftToeBase
                {
                    OFFSET -0.000000 -6.227426 14.370985
                    CHANNELS 3 Zrotation Xrotation Yrotation
                    End Site
                    {
                        OFFSET -0.000000 0.000000 3.832262
                    }
                }
            }
        }
    }
    JOINT RightUpLeg
    {
        OFFSET -9.580656 0.000000 0.000000
        CHANNELS 3 Zrotation Xrotation Yrotation
        JOINT RightLeg
        {
            OFFSET -0.000000 -43.769192 0.000000
            CHANNELS 3 Zrotation Xrotation Yrotation
            JOINT RightFoot
            {
                OFFSET -0.000000 -42.531967 0.000000
                CHANNELS 3 Zrotation Xrotation Yrotation
                JOINT RightToeBase
                {
                    OFFSET -0.000000 -6.227426 14.370985
                    CHANNELS 3 Zrotation Xrotation Yrotation
                    End Site
                    {
                        OFFSET -0.000000 0.000000 3.832262
                    }
                }
            }
        }
    }
}
MOTION
Frames:    12
Frame Time:    0.008333
-93.552803    93.198685    24.500027    -0.020293    -1.367486    89.090263    0.167396    -6.484184    1.739202    2.510255    4.476969    1.631560    0.218215    3.307506    -4.021164    6.510308    4.561148    -3.539207    11.244172    -0.561043    6.756695    -14.680547    9.429895    -12.495766    5.831499    -3.603105    -4.862159    9.837765    -3.466277    -1.286303    -13.586278    1.889620    -0.382878    23.739731    6.284562    2.526319    -4.142416    -3.285045    3.879323    -8.713695    -3.207543    0.823256    5.242254    6.524213    0.334243    -3.782775    -2.188670    6.673228    5.567644    -6.415485    10.233739    0.000000    0.000000    0.000000    0.384094    3.780587    -4.769540    2.108801    1.621916    -11.741400    -0.203382    -7.077987    1.998100    0.000000    0.000000    0.000000    
-93.528763    93.200157    24.497482    -0.018828    -1.363459    89.117378    0.176402    -6.449897    1.736942    2.444205    4.420885    1.632679    0.274906    3.172174    -4.037061    6.512441    4.708381    -3.570983    11.294537    -0.562319    6.754466    -14.728672    9.435526    -12.473249    5.870493    -3.648082    -4.864000    9.284969    -3.510706    -1.377993    -13.532591    1.875757    -0.391582    23.737671    6.415363    2.465699    -4.171809    -3.334640    3.920156    -8.620779    -3.247977    0.743096    5.235168    6.524159    0.336392    -3.775799    -2.165308    6.663101    5.548948    -6.427852    10.220443    0.000000    0.000000    0.000000    0.380468    3.814076    -4.767916    2.109837    1.594617    -11.751711    -0.224454    -7.077106    1.972671    0.000000    0.000000    0.000000    
-93.518326    93.202049    24.497520    -0.007833    -1.367067    89.134377    0.187836    -6.414720    1.724897    2.428222    4.378809    1.621536    0.155669    3.108934    -4.064551    6.704979    4.792557    -3.570572    11.279450    -0.575430    6.758539    -14.733415    9.445449    -12.443127    5.857527    -3.643479    -4.870423    9.270006    -3.506379    -1.380929    -13.531432    1.881003    -0.365379    23.747478    6.254984    2.470141    -4.151249    -3.260704    3.861896    -8.584974    -3.179670    0.784029    5.239554    6.525574    0.333273    -3.780730    -2.141500    6.666983    5.551893    -6.430925    10.219792    0.000000    0.000000    0.000000    0.388399    3.833261    -4.818682    2.101453    1.590214    -11.753456    -0.192520    -7.068687    2.006050    0.000000    0.000000    0.000000    
-93.508141    93.204063    24.497280    0.002233    -1.370429    89.149757    0.208080    -6.385947    1.726694    2.380180    4.356009    1.624572    0.327501    3.096011    -4.046321    6.475276    4.753974    -3.593564    11.309240    -0.563056    6.772735    -14.756893    9.428128    -12.466340    5.858236    -3.696254    -4.842763    8.838862    -3.575377    -1.640720    -13.507678    1.842993    -0.412321    23.747904    6.272026    2.485768    -4.129327    -3.260253    3.845454    -8.532907    -3.181417    0.800405    5.242701    6.534196    0.338258    -3.775626    -2.129501    6.638681    5.538449    -6.440208    10.221735    0.000000    0.000000    0.000000    0.391718    3.859420    -4.799753    2.106437    1.571950    -11.789987    -0.172027    -7.053336    1.971877    0.000000    0.000000    0.000000    
-93.500031    93.205421    24.496542    0.012116    -1.371209    89.162895    0.213306    -6.367966    1.718828    2.375252    4.355576    1.616633    0.210293    3.028697    -4.065569    6.672985    4.780263    -3.580919    11.301842    -0.576778    6.789353    -14.779334    9.420642    -12.459332    5.843971    -3.670633    -4.828623    8.894154    -3.550695    -1.625423    -13.522173    1.849507    -0.398511    23.761568    6.248209    2.474890    -4.118331    -3.268638    3.842705    -8.481200    -3.190151    0.803716    5.243006    6.538206    0.323994    -3.773620    -2.118515    6.659654    5.543120    -6.437879    10.197515    0.000000    0.000000    0.000000    0.392166    3.867585    -4.842768    2.099750    1.586981    -11.737495    -0.154445    -7.045180    1.960963    0.000000    0.000000    0.000000    
-93.492699    93.205467    24.496901    0.017318    -1.374039    89.178131    0.229303    -6.368637    1.712074    2.348747    4.383795    1.609423    0.111975    2.940627    -4.085522    6.859780    4.833378    -3.574010    11.313030    -0.599970    6.814110    -14.802949    9.402022    -12.463824    5.818279    -3.643566    -4.820943    8.952443    -3.522612    -1.582837    -13.524804    1.840430    -0.394793    23.774014    6.242596    2.469810    -4.108023    -3.260240    3.831613    -8.400734    -3.183855    0.829689    5.249244    6.538259    0.336558    -3.775119    -2.100389    6.627639    5.522093    -6.453785    10.198392    0.000000    0.000000    0.000000    0.397458    3.878092    -4.848944    2.100258    1.592233    -11.752083    -0.167849    -7.059268    1.977373    0.000000    0.000000    0.000000    
-93.485504    93.205429    24.495142    0.028408    -1.374075    89.193573    0.237400    -6.346300    1.714866    2.326140    4.379762    1.612777    0.165023    2.911093    -4.091473    6.806862    4.802184    -3.590277    11.334739    -0.603236    6.815736    -14.844556    9.365045    -12.472034    5.788408    -3.594799    -4.805527    9.272889    -3.471642    -1.475800    -13.509815    1.845030    -0.411432    23.769283    6.210523    2.469301    -4.113821    -3.212307    3.813234    -8.050233    -3.132720    0.814221    5.247277    6.540421    0.357864    -3.765603    -2.098862    6.795133    5.520474    -6.455449    9.982781    0.000000    0.000000    0.000000    0.397411    3.890515    -4.877359    2.096609    1.596228    -11.756668    -0.154324    -7.054617    1.975725    0.000000    0.000000    0.000000    
-93.478882    93.204185    24.494732    0.036278    -1.376962    89.203773    0.236443    -6.352255    1.716520    2.332793    4.424102    1.613325    0.358351    2.900489    -4.071612    6.478737    4.717778    -3.621913    11.336857    -0.617652    6.820268    -14.872072    9.347684    -12.473721    5.794175    -3.569179    -4.802164    9.058265    -3.438479    -1.416443    -13.531475    1.813150    -0.418982    23.789526    6.234209    2.456302    -4.114218    -3.206763    3.788917    -7.960377    -3.129802    0.848822    5.247099    6.538069    0.381491    -3.763016    -2.069396    6.778466    5.512155    -6.473854    9.970821    0.000000    0.000000    0.000000    0.401144    3.903577    -4.901480    2.095330    1.595910    -11.760379    -0.164373    -7.060832    1.990549    0.000000    0.000000    0.000000    
-93.474182    93.204399    24.492418    0.047264    -1.373844    89.217171    0.300711    -6.340714    1.727913    2.146523    4.436193    1.628143    0.564627    2.886637    -4.068051    6.395545    4.670279    -3.649477    11.516541    -0.586110    6.832803    -14.961650    9.320301    -12.520849    5.801135    -3.583603    -4.766477    9.037134    -3.454282    -1.417960    -13.379992    1.783352    -0.397654    23.754698    6.226274    2.401707    -4.087862    -3.197774    3.766597    -7.933956    -3.122854    0.857004    5.245543    6.540519    0.356255    -3.765869    -2.053934    6.791522    5.519675    -6.481113    9.970297    0.000000    0.000000    0.000000    0.398996    3.910312    -4.920686    2.091018    1.613303    -11.754783    -0.155829    -7.062461    1.991076    0.000000    0.000000    0.000000    
-93.469940    93.204796    24.489582    0.047653    -1.370485    89.231140    0.305470    -6.353131    1.729640    2.134343    4.478134    1.629225    0.586800    2.842521    -4.075963    6.373674    4.646525    -3.661591    11.526639    -0.594634    6.836339    -14.983910    9.289773    -12.528201    5.766137    -3.566777    -4.754459    9.064072    -3.440189    -1.422361    -13.385622    1.753848    -0.400632    23.768919    6.239000    2.381680    -4.086081    -3.180268    3.746712    -7.865968    -3.105540    0.856282    5.242425    6.522663    0.421044    -3.770887    -2.017242    6.741106    5.522883    -6.490078    9.942064    0.000000    0.000000    0.000000    0.396341    3.899665    -4.970376    2.088054    1.638843    -11.723491    -0.148634    -7.074542    1.983653    0.000000    0.000000    0.000000    
-93.462296    93.203445    24.491299    0.062430    -1.374813    89.233582    0.312008    -6.335149    1.744524    2.106798    4.476911    1.644929    0.629174    2.813604    -4.089396    6.382162    4.650112    -3.680312    11.562583    -0.586749    6.804913    -15.023626    9.253634    -12.524018    5.781569    -3.608247    -4.746329    8.563441    -3.487877    -1.591778    -13.335425    1.779087    -0.365350    23.753880    6.212711    2.321135    -4.084908    -3.195158    3.725397    -7.629177    -3.130901    1.028170    5.246633    6.540370    0.440338    -3.770070    -2.012932    6.729084    5.527980    -6.496943    9.937465    0.000000    0.000000    0.000000    0.405363    3.913092    -4.955967    2.083777    1.648088    -11.764845    -0.153230    -7.073451    1.999546    0.000000    0.000000    0.000000    
-93.455307    93.203644    24.488588    0.075534    -1.371121    89.257187    0.316217    -6.331776    1.747127    2.081907    4.505503    1.647738    0.692807    2.768975    -4.099150    6.326953    4.656677    -3.704669    11.588886    -0.578224    6.793512    -15.052903    9.225519    -12.539154    5.772376    -3.603849    -4.722765    8.569751    -3.485394    -1.595377    -13.313009    1.752483    -0.364195    23.752213    6.235233    2.289566    -4.047626    -3.214050    3.699813    -8.001542    -3.148209    0.927117    5.244124    6.546891    0.419515    -3.770253    -1.999481    6.718694    5.517222    -6.501106    9.940103    0.000000    0.000000    0.000000    0.466576    3.870553    -5.071091    1.936545    1.738274    -11.945350    -0.013515    -7.092117    2.286176    0.000000    0.000000    0.000000    
